<?xml version="1.0" encoding="UTF-8"?>
<svg id="Layer_1" xmlns="http://www.w3.org/2000/svg" version="1.1" xmlns:xlink="http://www.w3.org/1999/xlink" viewBox="0 0 855.43 855.43">
  <!-- Generator: Adobe Illustrator 30.2.1, SVG Export Plug-In . SVG Version: 2.1.1 Build 1)  -->
  <defs>
    <style>
      .st0 {
        fill: url(#linear-gradient2);
      }

      .st1 {
        stroke: url(#linear-gradient3);
      }

      .st1, .st2, .st3 {
        stroke-miterlimit: 10;
      }

      .st1, .st3 {
        fill: none;
        stroke-width: 30px;
      }

      .st4, .st5 {
        fill: #fff;
      }

      .st6 {
        fill: url(#linear-gradient1);
      }

      .st5 {
        display: none;
      }

      .st2 {
        fill: #231f20;
        stroke: #000;
      }

      .st7 {
        fill: url(#linear-gradient);
      }

      .st3 {
        stroke: #fff;
      }
    </style>
    <linearGradient id="linear-gradient" x1="0" y1="430.28" x2="855.44" y2="430.28" gradientTransform="translate(0 858) scale(1 -1)" gradientUnits="userSpaceOnUse">
      <stop offset="0" stop-color="#2a2732"/>
      <stop offset="1" stop-color="#292632"/>
    </linearGradient>
    <linearGradient id="linear-gradient1" x1="734.25" y1="747.27" x2="335.14" y2="56.01" gradientTransform="translate(0 858) scale(1 -1)" gradientUnits="userSpaceOnUse">
      <stop offset="0" stop-color="#534d5c"/>
      <stop offset="1" stop-color="#292632"/>
    </linearGradient>
    <linearGradient id="linear-gradient2" x1="263.03" y1="430.28" x2="592.39" y2="430.28" gradientTransform="translate(0 858) scale(1 -1)" gradientUnits="userSpaceOnUse">
      <stop offset="0" stop-color="#fff"/>
      <stop offset="1" stop-color="#6c6275"/>
    </linearGradient>
    <linearGradient id="linear-gradient3" x1="620.37" y1="763.95" x2="235.07" y2="96.61" gradientTransform="translate(0 858) scale(1 -1)" gradientUnits="userSpaceOnUse">
      <stop offset="0" stop-color="#fff"/>
      <stop offset=".61" stop-color="#f1eff1"/>
      <stop offset="1" stop-color="#6c6275"/>
    </linearGradient>
  </defs>
  <circle class="st2" cx="427.71" cy="427.72" r="204.64"/>
  <path class="st7" d="M427.72,0C191.5,0,0,191.5,0,427.72s191.5,427.72,427.72,427.72,427.72-191.5,427.72-427.72S663.94,0,427.72,0ZM427.72,609.89c-100.61,0-182.17-81.56-182.17-182.17s81.56-182.17,182.17-182.17,182.17,81.56,182.17,182.17-81.56,182.17-182.17,182.17h0Z"/>
  <path class="st6" d="M427.72,0v245.55c100.61,0,182.17,81.56,182.17,182.17s-81.56,182.17-182.17,182.17v245.55c236.22,0,427.72-191.5,427.72-427.72S663.94,0,427.72,0Z"/>
  <path class="st0" d="M517.95,436.46l51.11,284.94h-282.67l51.09-284.94c-44.83-29.39-74.45-80.12-74.45-137.77,0-90.94,73.74-164.66,164.68-164.66s164.68,73.71,164.68,164.66c0,57.64-29.62,108.38-74.45,137.77h.01Z"/>
  <path class="st4" d="M592.4,298.69c0-90.94-73.74-164.66-164.68-164.66h0v587.37h141.35l-51.11-284.94c44.83-29.39,74.45-80.12,74.45-137.77h-.01Z"/>
  <circle class="st3" cx="427.72" cy="427.72" r="370.23"/>
  <circle class="st1" cx="427.72" cy="427.72" r="370.23"/>
  <polygon class="st5" points="376 418.49 334.94 681.23 446.58 681.23 446.58 702.53 305.23 702.53 355.94 418.49 376 418.49"/>
  <path class="st5" d="M427.71,155.94c-78.07,0-141.36,63.29-141.36,141.36,0,59.24,36.44,109.96,88.13,130.98l2.3-14.67.72-4.56c-42.6-19.18-72.27-62-72.27-111.75,0-67.65,54.84-122.49,122.49-122.49s122.49,54.84,122.49,122.49-53.55,121.19-120.1,122.46v18.88c76.97-1.28,138.96-64.06,138.96-141.33s-63.29-141.36-141.36-141.36Z"/>
</svg>